<?xml version="1.0" encoding="UTF-8"?>
<svg width="12.7mm" height="12.7mm" version="1.1" viewBox="0 0 19.153 19.153" xmlns="http://www.w3.org/2000/svg">
 <defs>
  <filter id="filter2095" color-interpolation-filters="sRGB">
   <feColorMatrix in="SourceGraphic" result="color" values="1 0 0 0 0 0 1 0 0 0 0 0 1 0 0 0 0 0 0.85 0"/>
   <feGaussianBlur in="SourceAlpha" result="blur" stdDeviation="8.01802"/>
   <feSpecularLighting lighting-color="rgb(255,255,255)" in="blur" result="specular" specularConstant="0.703593" specularExponent="25" surfaceScale="5">
    <feDistantLight azimuth="222" elevation="63"/>
   </feSpecularLighting>
   <feComposite in="specular" in2="SourceGraphic" k2="1" k3="1" operator="arithmetic" result="composite1"/>
   <feComposite in="composite1" in2="color" operator="atop" result="composite2"/>
  </filter>
 </defs>
 <g transform="translate(-70.341 -159.45)">
  <g class="layer" transform="matrix(.16801 0 0 .16801 26.155 128.71)">
   <title>Layer 1</title>
   <circle cx="320" cy="240" r="54" fill="#fff" stroke="#808080" stroke-linecap="round" stroke-linejoin="round" stroke-width="6"/>
  </g>
  <path transform="matrix(.39902 0 0 .39902 70.341 159.45)" d="m20.982 45.147c-4.8144-0.7626-8.8338-2.851-12.224-6.3514-2.8435-2.9359-4.3993-5.6911-5.4669-9.6816-0.75486-2.8214-0.74057-7.4946 0.031652-10.354 1.9387-7.179 7.1096-12.686 14.113-15.029 3.1833-1.0652 7.351-1.3152 10.685-0.64079 12.938 2.6174 20.433 16.177 15.778 28.546-2.3542 6.2544-8.104 11.364-14.642 13.013-2.3403 0.59005-6.2202 0.8238-8.2739 0.4985z" fill="#b3ff80" filter="url(#filter2095)" stroke-width=".25254"/>
 </g>
</svg>
